<svg width="189" height="32" viewBox="0 0 189 32" fill="none" xmlns="http://www.w3.org/2000/svg">
<mask id="mask0_2058_1404" style="mask-type:luminance" maskUnits="userSpaceOnUse" x="0" y="0" width="189" height="32">
<path d="M188.746 0H0.142578V32H188.746V0Z" fill="white"/>
</mask>
<g mask="url(#mask0_2058_1404)">
<mask id="mask1_2058_1404" style="mask-type:luminance" maskUnits="userSpaceOnUse" x="0" y="0" width="189" height="32">
<path d="M188.746 0H0.142578V32H188.746V0Z" fill="white"/>
</mask>
<g mask="url(#mask1_2058_1404)">
<path d="M74.0996 3.50312C74.0996 1.92283 75.3815 0.633545 76.9692 0.633545C78.5495 0.633545 79.8388 1.91546 79.8388 3.50312C79.7835 5.08342 78.45 6.31744 76.866 6.26219C75.3631 6.20693 74.1585 5.00238 74.0996 3.50312Z" fill="#191825" fill-opacity="0.5"/>
</g>
<mask id="mask2_2058_1404" style="mask-type:luminance" maskUnits="userSpaceOnUse" x="0" y="0" width="189" height="32">
<path d="M188.746 0H0.142578V32H188.746V0Z" fill="white"/>
</mask>
<g mask="url(#mask2_2058_1404)">
<path d="M119.324 22.6177C119.324 21.0263 120.606 19.7407 122.182 19.7407C123.77 19.7407 125.056 21.0263 125.056 22.6177C125.056 24.2053 123.77 25.4909 122.182 25.4909C120.606 25.4909 119.324 24.2016 119.324 22.6177Z" fill="#191825" fill-opacity="0.5"/>
</g>
<mask id="mask3_2058_1404" style="mask-type:luminance" maskUnits="userSpaceOnUse" x="0" y="0" width="189" height="32">
<path d="M188.746 0H0.142578V32H188.746V0Z" fill="white"/>
</mask>
<g mask="url(#mask3_2058_1404)">
<path d="M27.0703 21.3763C24.6059 21.3763 22.8857 19.4166 22.8857 16.6133C22.8857 13.8137 24.6022 11.854 27.0703 11.854C29.5494 11.854 31.2881 13.8137 31.2881 16.6133C31.2844 19.4608 29.5899 21.3763 27.0703 21.3763ZM27.0703 7.66939C21.8505 7.66939 18.0601 11.4304 18.0601 16.6133C18.0601 21.7962 21.8542 25.5573 27.0703 25.5573C32.3158 25.5573 36.1174 21.7962 36.1174 16.617C36.1174 11.4304 32.3085 7.66939 27.0703 7.66939ZM68.5521 17.0627C68.3716 16.7128 68.1395 16.3849 67.8706 16.0976L67.7122 15.9318L67.878 15.7735C68.1174 15.5193 68.3642 15.2209 68.5963 14.8746L73.2045 8.02302H67.609L64.1464 13.3827C63.9512 13.6738 63.557 13.8101 62.9639 13.8101H62.172V3.67629C62.172 1.65027 60.9121 1.37769 59.5455 1.37769H57.2101L57.2137 25.292H62.1683V18.1236H62.6324C63.196 18.1236 63.5791 18.1899 63.7596 18.4957L66.4929 23.6565C67.2591 25.0563 68.0179 25.2957 69.4472 25.2957H73.2561L70.4234 20.6212L68.5521 17.0627ZM92.6211 7.63255C90.0978 7.63255 88.4881 8.75238 87.5892 9.70277L87.2909 10.0085L87.184 9.59594C86.9188 8.57925 86.0274 8.0267 84.6828 8.0267H82.4616L82.4763 25.2957H87.4014V17.339C87.4014 16.5581 87.5008 15.8876 87.7071 15.2688C88.256 13.4049 89.7847 12.2408 91.6928 12.2408C93.2289 12.2408 93.8331 13.0512 93.8331 15.1509V22.6729C93.8331 24.4595 94.6582 25.2994 96.4521 25.2994H98.7913L98.7802 14.3147C98.7802 9.93484 96.6474 7.63255 92.6211 7.63255ZM77.0319 8.02302H74.6964L74.7111 21.3763V25.292H77.2013L77.2897 25.2957L78.4538 25.292H79.6067V25.2884H79.6178L79.6288 10.6495C79.6215 8.88131 78.7779 8.02302 77.0319 8.02302ZM46.4059 21.3763C43.9415 21.3763 42.2212 19.4166 42.2212 16.6133C42.2212 13.8137 43.9415 11.854 46.4059 11.854C48.8813 11.854 50.6237 13.8137 50.6237 16.6133C50.62 19.4608 48.9255 21.3763 46.4059 21.3763ZM46.4059 7.66939C41.1824 7.66939 37.3883 11.4304 37.3883 16.6133C37.3883 21.7962 41.1824 25.5573 46.4059 25.5573C51.6404 25.5573 55.4529 21.7962 55.4529 16.617C55.4529 11.4304 51.644 7.66939 46.4059 7.66939Z" fill="#191825" fill-opacity="0.5"/>
</g>
</g>
<mask id="mask4_2058_1404" style="mask-type:luminance" maskUnits="userSpaceOnUse" x="0" y="0" width="189" height="32">
<path d="M188.746 0H0.142578V32H188.746V0Z" fill="white"/>
</mask>
<g mask="url(#mask4_2058_1404)">
<mask id="mask5_2058_1404" style="mask-type:luminance" maskUnits="userSpaceOnUse" x="0" y="0" width="189" height="32">
<path d="M188.706 0.629883H0.142578V31.9595H188.706V0.629883Z" fill="white"/>
</mask>
<g mask="url(#mask5_2058_1404)">
<mask id="mask6_2058_1404" style="mask-type:luminance" maskUnits="userSpaceOnUse" x="0" y="0" width="189" height="32">
<path d="M188.746 0H0.142578V32H188.746V0Z" fill="white"/>
</mask>
<g mask="url(#mask6_2058_1404)">
<path d="M151.935 21.3763C149.471 21.3763 147.75 19.4166 147.75 16.6134C147.75 13.8138 149.471 11.8541 151.935 11.8541C154.414 11.8541 156.153 13.8138 156.153 16.6134C156.153 19.4608 154.455 21.3763 151.935 21.3763ZM151.935 7.66943C146.712 7.66943 142.917 11.4305 142.917 16.6134C142.917 21.7963 146.704 25.5573 151.935 25.5573C157.173 25.5573 160.982 21.7963 160.982 16.6171C160.982 11.4305 157.17 7.66943 151.935 7.66943Z" fill="#191825" fill-opacity="0.5"/>
</g>
<mask id="mask7_2058_1404" style="mask-type:luminance" maskUnits="userSpaceOnUse" x="0" y="0" width="189" height="32">
<path d="M188.746 0H0.142578V32H188.746V0Z" fill="white"/>
</mask>
<g mask="url(#mask7_2058_1404)">
<path d="M109.157 20.6101C106.464 20.6101 105.51 18.2636 105.51 16.0645C105.51 15.092 105.757 11.9351 108.906 11.9351C110.468 11.9351 112.55 12.3845 112.55 16.2229C112.546 19.8513 110.7 20.6101 109.157 20.6101ZM115.102 7.97883C114.167 7.97883 113.448 8.35088 113.087 9.03236L112.955 9.29758L112.726 9.09498C111.931 8.40613 110.505 7.59204 108.195 7.59204C103.591 7.59204 100.493 11.0473 100.493 16.1971C100.493 21.3395 103.701 24.9311 108.291 24.9311C109.857 24.9311 111.098 24.5627 112.078 23.8186L112.454 23.535V24.0138C112.454 26.3235 110.962 27.5943 108.258 27.5943C106.939 27.5943 105.746 27.2739 104.946 26.9829C103.904 26.6661 103.289 26.9313 102.869 27.9738L102.475 28.9389L101.922 30.3497L102.265 30.5302C103.996 31.4511 106.25 31.9963 108.284 31.9963C112.476 31.9963 117.371 29.8524 117.371 23.8112L117.386 7.96778H115.102" fill="#191825" fill-opacity="0.5"/>
</g>
</g>
</g>
<mask id="mask8_2058_1404" style="mask-type:luminance" maskUnits="userSpaceOnUse" x="0" y="0" width="189" height="32">
<path d="M188.746 0H0.142578V32H188.746V0Z" fill="white"/>
</mask>
<g mask="url(#mask8_2058_1404)">
<mask id="mask9_2058_1404" style="mask-type:luminance" maskUnits="userSpaceOnUse" x="0" y="0" width="189" height="32">
<path d="M188.746 0H0.142578V32H188.746V0Z" fill="white"/>
</mask>
<g mask="url(#mask9_2058_1404)">
<path d="M8.73657 21.1737L4.72506 21.17V16.3812C4.72506 15.3535 5.12289 14.8267 5.99592 14.7015H8.7292C10.6779 14.7015 11.9377 15.9318 11.945 17.921C11.945 19.9654 10.7147 21.1737 8.73657 21.1737ZM4.72506 8.25136V6.99154C4.72506 5.88644 5.1892 5.36337 6.21694 5.29706H8.26874C10.0259 5.29706 11.0794 6.35059 11.0794 8.11138C11.0794 9.45592 10.3574 11.0215 8.33137 11.0215H4.72506V8.25136ZM13.8495 13.0328L13.1275 12.6239L13.7574 12.0824C14.4978 11.4525 15.7245 10.0269 15.7245 7.56988C15.7245 3.80886 12.8107 1.38501 8.29821 1.38501H2.56643C1.22926 1.4329 0.157313 2.52694 0.142578 3.86412V25.1999H8.40504C13.4222 25.1999 16.6565 22.4703 16.6565 18.2415C16.6565 15.9723 15.6066 14.0237 13.8495 13.0328Z" fill="#191825" fill-opacity="0.5"/>
</g>
<mask id="mask10_2058_1404" style="mask-type:luminance" maskUnits="userSpaceOnUse" x="0" y="0" width="189" height="32">
<path d="M188.746 0H0.142578V32H188.746V0Z" fill="white"/>
</mask>
<g mask="url(#mask10_2058_1404)">
<path d="M182.974 7.68776C180.918 7.69145 178.97 8.63815 177.688 10.2516L177.331 10.701L177.051 10.1963C176.137 8.53133 174.571 7.69145 172.383 7.69145C170.096 7.69145 168.56 8.966 167.845 9.72852L167.381 10.2332L167.2 9.56644C166.943 8.60868 166.088 8.08192 164.799 8.08192H162.728L162.706 25.2846H167.407V17.6889C167.407 17.0222 167.488 16.3665 167.654 15.6776C168.103 13.8432 169.337 11.8687 171.411 12.064C172.685 12.1892 173.312 13.1764 173.312 15.0809V25.281H178.045V17.6852C178.045 16.8527 178.123 16.2265 178.31 15.6076C178.686 13.8542 179.979 12.0566 181.979 12.0566C183.427 12.0566 183.965 12.8744 183.965 15.0809V22.765C183.965 24.5 184.738 25.281 186.477 25.281H188.687L188.691 14.2999C188.706 9.90902 186.772 7.68776 182.974 7.68776ZM140.195 19.3097C140.181 19.3245 138.158 21.461 135.495 21.461C133.068 21.461 130.618 19.9728 130.618 16.6501C130.618 13.7806 132.519 11.773 135.241 11.773C136.125 11.773 137.127 12.0897 137.285 12.6202L137.307 12.7086C137.514 13.4638 138.203 13.9831 138.98 13.9795L141.555 13.9832V11.7287C141.555 8.75603 137.779 7.68408 135.234 7.68408C129.797 7.68408 125.855 11.4672 125.855 16.6796C125.855 21.8883 129.756 25.6714 135.134 25.6714C139.801 25.6714 142.336 22.6029 142.361 22.5771L142.494 22.4114L140.453 19.0261L140.195 19.3097Z" fill="#191825" fill-opacity="0.5"/>
</g>
</g>
</svg>
