<svg width="175" height="32" viewBox="0 0 175 32" fill="none" xmlns="http://www.w3.org/2000/svg">
<path d="M100.291 31.141L113.595 1.03261C113.805 0.575727 113.559 0.18281 113.047 0.18281H103.727C103.454 0.198309 103.19 0.285992 102.962 0.4369C102.734 0.587809 102.55 0.796533 102.429 1.04174L89.2892 31.141C89.0974 31.607 89.3441 31.9908 89.8466 31.9908H98.9934C99.5051 31.9908 100.09 31.607 100.291 31.141ZM147.998 23.036L168.649 0.191948H144.499L139.034 8.99146H148.51L127.521 31.9999H153.079L162.6 23.036H147.998ZM59.6195 0.18281H43.6287C43.1546 0.210282 42.6962 0.362492 42.2999 0.624037C41.9035 0.885583 41.5833 1.24718 41.3717 1.67224L28.7892 30.5105C28.4237 31.3329 28.8714 31.9999 29.7669 31.9999H37.6892C38.5847 31.9999 39.6081 31.3329 39.9553 30.5197L43.5464 22.3415H47.2654C48.4259 22.2684 48.9193 22.6979 48.2797 24.0411L45.5201 30.5105C45.1729 31.3329 45.6115 31.9999 46.507 31.9999H54.4293C54.9052 31.975 55.3659 31.8239 55.7641 31.5621C56.1623 31.3004 56.4837 30.9375 56.6954 30.5105L60.2956 22.1862C61.4287 19.4814 59.7931 17.3889 57.4173 17.2793C59.5189 16.5208 61.4561 14.4283 62.3242 12.5277L64.1883 8.14166C66.4361 3.04288 64.837 0.118847 59.6195 0.191948M54.9593 9.28386L52.9855 13.6242C52.5287 14.6659 51.8708 14.7481 51.2129 14.7207H46.7628L49.7417 7.95891H54.009C55.0507 8.02287 55.3156 8.39752 54.9593 9.28386ZM90.7421 0.173672H73.801C73.4617 0.191354 73.1332 0.2988 72.8491 0.485029C72.5649 0.671259 72.3353 0.929594 72.1837 1.23363L59.2174 30.9308C58.9707 31.5156 59.2722 31.9817 59.9119 31.9817H78.05C83.7976 31.8994 87.0962 30.6293 89.7187 24.5437L91.5828 20.4866C93.0448 17.0143 91.6102 15.5066 88.8689 15.068C91.1533 14.3644 92.8712 12.217 93.6113 10.3255L95.1282 7.10911C96.9922 2.81444 95.4389 0.118847 90.733 0.173672M82.4269 20.0936L81.2756 22.4055C80.6999 24.0137 79.6948 24.4523 78.2784 24.4706H72.9786L75.5189 18.4854H80.8187C82.3173 18.5951 82.9021 18.9606 82.4269 20.0936ZM85.4697 9.4392L84.6748 11.2667L84.556 11.5043C84.424 11.8855 84.1696 12.2124 83.8324 12.4338C83.4952 12.6553 83.0942 12.759 82.6919 12.7287H78.0957L80.1973 7.88581H84.8849C85.7256 7.94064 85.8626 8.48889 85.4697 9.4392ZM116.528 0.18281L112.59 8.99146H118.21C118.594 8.99146 118.776 9.26559 118.621 9.62195L108.798 31.3694C108.634 31.7167 108.825 31.9999 109.209 31.9999H119.215C119.599 31.9999 120.037 31.7167 120.193 31.3603L129.623 9.62195C129.713 9.43911 129.85 9.28353 130.02 9.17115C130.191 9.05876 130.388 8.9936 130.591 8.98232H136.357L141.785 0.18281H116.528ZM33.5133 11.02L34.756 8.30614C37.2597 2.586 35.6058 0.127984 30.6898 0.191948H18.8566C13.9863 0.127984 9.92917 2.86926 7.68132 7.96805L4.02628 18.2935H0.572266L7.17875 27.2118L18.0982 18.2935H15.3204L18.5277 10.8464C19.0485 9.62195 19.944 9.03715 20.9034 8.99146H22.7675C23.2061 9.00974 23.5076 9.1468 23.6813 9.33869L29.4745 4.46835L33.5133 11.02Z" fill="#191825" fill-opacity="0.5"/>
<path d="M6.93212 29.8344L2.07092 23.6757L1.81507 24.2239C-0.44192 29.3593 -0.0672783 31.9178 4.80306 31.9909H16.4809C21.3147 31.9178 25.5454 29.3593 27.8115 24.2239L31.2838 16.2651H34.3906L29.0908 7.33765L18.2628 16.2651H21.2325L19.0394 21.3365C18.5095 22.4147 17.7054 22.9995 16.8464 23.036H15.293L6.93212 29.8344Z" fill="#191825" fill-opacity="0.5"/>
<path d="M172.496 0.000121574C172.926 0.000121574 173.291 0.155461 173.593 0.457002C173.894 0.758543 174.05 1.12405 174.05 1.55351C174.05 1.97384 173.894 2.33935 173.593 2.65003C173.291 2.96071 172.926 3.10691 172.496 3.10691C172.292 3.11005 172.089 3.07111 171.9 2.99251C171.712 2.91391 171.541 2.79733 171.4 2.65003C171.098 2.33935 170.943 1.97384 170.943 1.55351C170.943 1.13318 171.098 0.749405 171.4 0.457002C171.542 0.310133 171.712 0.193842 171.901 0.115274C172.089 0.0367063 172.292 -0.00248031 172.496 0.000121574ZM172.496 2.8145C172.664 2.81829 172.831 2.78783 172.986 2.72499C173.142 2.66214 173.283 2.56823 173.401 2.449C173.521 2.33132 173.615 2.19028 173.678 2.03467C173.741 1.87905 173.771 1.71216 173.766 1.54438C173.769 1.37812 173.739 1.21297 173.676 1.05902C173.613 0.905057 173.519 0.765513 173.401 0.648891C173.283 0.52922 173.142 0.435021 172.987 0.372144C172.831 0.309268 172.664 0.279057 172.496 0.283387C172.33 0.279772 172.165 0.310346 172.011 0.373218C171.857 0.436089 171.717 0.529918 171.601 0.648891C171.354 0.895607 171.235 1.19715 171.235 1.54438C171.235 1.89161 171.354 2.20228 171.601 2.449C171.847 2.69571 172.149 2.8145 172.496 2.8145ZM173.291 2.3759H172.926L172.469 1.71799H172.277V2.3759H171.948V0.703717H172.469C172.652 0.703717 172.798 0.749405 172.907 0.831644C173.017 0.92302 173.081 1.04181 173.081 1.19715C173.081 1.39818 172.971 1.55351 172.761 1.63575L173.291 2.3759ZM172.286 1.44386H172.46C172.67 1.44386 172.77 1.36162 172.77 1.20629C172.77 1.05095 172.679 0.977845 172.469 0.977845H172.286V1.44386Z" fill="#191825" fill-opacity="0.5"/>
</svg>
