<svg width="114" height="32" viewBox="0 0 114 32" fill="none" xmlns="http://www.w3.org/2000/svg">
<path d="M54.4227 25.0368H50.9077C50.8855 25.0368 50.8855 25.0368 50.8743 25.0257L47.8488 21.3327L44.8232 25.0257C44.8121 25.0368 44.801 25.0368 44.7899 25.0368H41.9756C41.9534 25.0368 41.9423 25.0257 41.9312 25.0146C41.9312 25.0034 41.9312 24.9812 41.9423 24.9701L46.4027 19.4974L41.9979 14.0803C41.9868 14.0581 41.9868 14.0469 41.9868 14.0247C41.9979 14.0136 42.009 14.0024 42.0201 14.0024H45.5351C45.5462 14.0024 45.5574 14.0136 45.5685 14.0247L48.227 17.3172L50.9299 14.0247C50.9411 14.0136 50.9522 14.0024 50.9633 14.0024H53.822C53.8331 14.0024 53.8554 14.0136 53.8665 14.0247C53.8776 14.0469 53.8665 14.0581 53.8554 14.0803L49.6841 19.0969L54.4672 24.9701C54.4783 24.9812 54.4783 25.0034 54.4783 25.0146C54.456 25.0368 54.4449 25.0368 54.4227 25.0368Z" fill="#191825" fill-opacity="0.5"/>
<path d="M73.4322 15.9379C71.875 15.9379 70.8182 16.8834 70.5068 18.5185H75.8015V18.4073C75.8015 17.1059 74.8338 15.9379 73.4322 15.9379ZM78.5267 20.2093C78.5156 20.2204 78.5045 20.2315 78.4933 20.2315H70.4512C70.618 22.1002 71.8305 23.1681 73.7993 23.1681C75.0117 23.1681 76.302 22.7565 78.1152 21.7888C78.1485 21.7665 78.1819 21.7999 78.1819 21.8333V24.3027C78.1819 24.3249 78.1708 24.336 78.1596 24.336C76.4689 25.0479 74.767 25.5374 73.4322 25.5374C69.9729 25.5374 67.459 23.0124 67.459 19.5419C67.459 16.0714 69.9729 13.5464 73.4322 13.5464C76.5913 13.5464 78.6157 15.6709 78.6157 18.5964C78.6157 19.0747 78.5378 20.1759 78.5267 20.2093Z" fill="#191825" fill-opacity="0.5"/>
<path d="M94.8558 11.711C93.8658 11.711 93.0649 10.9212 93.0649 9.95349C93.0649 8.95239 93.8658 8.14038 94.8558 8.14038C95.8458 8.14038 96.6467 8.95239 96.6467 9.95349C96.6467 10.9212 95.8458 11.711 94.8558 11.711ZM93.4098 25.0368C93.3764 25.0368 93.3653 25.0256 93.3653 24.9923V14.0358C93.3653 14.0135 93.3764 13.9913 93.3986 13.9913H96.3018C96.3241 13.9913 96.3352 14.0135 96.3352 14.0358V24.9923C96.3352 25.0256 96.313 25.0368 96.2907 25.0368H93.4098Z" fill="#191825" fill-opacity="0.5"/>
<path d="M59.7393 23.3906C59.2165 23.3906 58.6826 23.3127 58.0597 23.157L58.0708 16.127C58.7938 15.8934 59.4167 15.7933 60.0396 15.7933C62.053 15.7933 63.3989 17.2727 63.3989 19.4863C63.3989 21.8555 61.964 23.3906 59.7393 23.3906ZM60.5291 13.5464C59.7059 13.5464 58.8828 13.691 58.0152 13.9913H55.1231C55.1009 13.9913 55.0786 14.0136 55.0786 14.0358V32C55.9462 31.8777 57.0141 31.5662 58.0597 30.8321V25.3705C58.7716 25.4706 59.3611 25.5374 59.9284 25.5374C63.8883 25.5374 66.4467 23.1681 66.4467 19.4974C66.4467 15.9935 64.0107 13.5464 60.5291 13.5464Z" fill="#191825" fill-opacity="0.5"/>
<path d="M88.1263 22.4783C87.2253 22.9566 86.4133 23.1791 85.6569 23.1791C83.866 23.1791 82.7871 21.911 82.7871 19.7865C82.7871 17.3393 84.1552 15.7487 86.2798 15.7487C86.8693 15.7487 87.4366 15.8933 88.1263 16.2047V22.4783ZM88.1263 8.19592V13.9244C87.2809 13.6797 86.5356 13.5685 85.7792 13.5685C82.331 13.5685 79.7393 16.1602 79.7393 19.6085C79.7393 23.0345 82.0307 25.5261 85.1897 25.5261C86.2798 25.5261 87.3031 25.248 88.5045 24.6362V25.6262C89.2942 25.4705 90.2063 25.159 91.1073 24.5139V7.01685C90.2286 7.1392 89.183 7.43953 88.1263 8.19592Z" fill="#191825" fill-opacity="0.5"/>
<path d="M106.402 22.4562C105.523 22.9567 104.778 23.2014 104.111 23.2014C102.186 23.2014 101.041 21.9334 101.041 19.8088C101.041 17.395 102.398 15.771 104.411 15.771C104.945 15.771 105.601 15.9824 106.402 16.4051V22.4562ZM109.383 13.8578C109.383 13.7911 109.328 13.7355 109.261 13.7355H106.914C106.847 13.7355 106.78 13.7911 106.78 13.8578V14.2583H106.725C105.646 13.7799 104.711 13.5686 103.81 13.5686C100.562 13.5686 98.0151 16.2605 98.0151 19.7087C98.0151 23.1903 100.295 25.5262 103.688 25.5262C104.589 25.5262 105.757 25.4595 106.847 24.2136V25.6263C107.615 25.4595 108.527 25.1369 109.383 24.514V13.8578Z" fill="#191825" fill-opacity="0.5"/>
<path d="M33.9443 22.3004H41.2301C41.1189 23.1124 40.8408 24.069 40.2179 25.0367H32.6429C31.7197 25.0367 30.9522 24.3137 30.8632 23.4127C30.8632 23.4016 30.8521 23.3905 30.8521 23.3682V8.99687C30.8521 8.98575 30.8632 8.97462 30.8632 8.9635C30.9522 8.05139 31.7197 7.32837 32.6429 7.32837H41.219C41.1078 8.14037 40.8297 9.11923 40.1957 10.087H33.9443V14.0024H40.14C40.1623 14.0024 40.1845 14.0246 40.1845 14.0469V16.761C40.1845 16.7832 40.1623 16.8055 40.14 16.8055H33.9443V22.3004Z" fill="#191825" fill-opacity="0.5"/>
<path d="M24.8233 25.2704C24.1002 25.2704 23.6553 24.7031 23.6553 24.0135C23.6553 23.2793 24.167 22.7565 24.8233 22.7565C25.4684 22.7565 25.9801 23.2682 25.9801 24.0135C25.9801 24.7587 25.4684 25.2704 24.8233 25.2704ZM24.8233 22.623C24.0891 22.623 23.4551 23.1792 23.4551 24.0135C23.4551 24.8032 24.0224 25.4039 24.8233 25.4039C25.5463 25.4039 26.1803 24.8477 26.1803 24.0135C26.1803 23.1792 25.5574 22.623 24.8233 22.623Z" fill="#191825" fill-opacity="0.5"/>
<path d="M24.5005 23.9022V23.3905H24.8453C25.0233 23.3905 25.2235 23.4128 25.2235 23.6241C25.2235 23.88 25.0344 23.8911 24.823 23.8911C24.8119 23.9022 24.5005 23.9022 24.5005 23.9022ZM25.4682 23.6575C25.4682 23.3238 25.268 23.1792 24.8675 23.1792H24.2446V24.8255H24.5116V24.1247H24.7674L25.1901 24.8255H25.5016L25.0455 24.1024C25.2902 24.0802 25.4682 23.9578 25.4682 23.6575Z" fill="#191825" fill-opacity="0.5"/>
<path d="M111.786 15.8154C111.063 15.8154 110.618 15.2481 110.618 14.5585C110.618 13.8244 111.129 13.3016 111.786 13.3016C112.431 13.3016 112.942 13.8132 112.942 14.5585C112.942 15.3038 112.431 15.8154 111.786 15.8154ZM111.786 13.1792C111.052 13.1792 110.417 13.7354 110.417 14.5696C110.417 15.3594 110.985 15.96 111.786 15.96C112.509 15.96 113.143 15.4039 113.143 14.5696C113.143 13.7242 112.509 13.1792 111.786 13.1792Z" fill="#191825" fill-opacity="0.5"/>
<path d="M111.452 14.4472V13.9467H111.797C111.975 13.9467 112.175 13.9689 112.175 14.1803C112.175 14.4361 111.986 14.4472 111.774 14.4472H111.452ZM112.431 14.2137C112.431 13.88 112.23 13.7354 111.83 13.7354H111.207V15.3816H111.474V14.6808H111.73L112.153 15.3816H112.464L112.008 14.6586C112.242 14.6363 112.431 14.514 112.431 14.2137Z" fill="#191825" fill-opacity="0.5"/>
<path d="M15.424 10.0759L14.9012 8.58534L10.4074 2.58985L11.2083 2.38963L18.939 9.07476L23.4884 7.77333C24.0224 7.63985 24.6342 7.60648 25.0902 7.60648C23.6664 4.52531 21.0413 1.98919 17.5931 0.765622C10.7745 -1.67039 3.2662 1.9002 0.841308 8.72994C0.0849203 10.8434 -0.0819299 13.0236 0.229524 15.0925L11.1193 11.3106L15.424 10.0759Z" fill="#191825" fill-opacity="0.5"/>
<path d="M25.5797 8.78564C25.1793 9.04148 24.5897 9.38631 24.0113 9.5754L19.4507 10.8768L16.4141 20.6431L15.6243 20.899L16.2695 13.4463L15.9135 11.9002L11.6421 13.1238L0.34082 15.76C1.24181 20.0981 4.31186 23.8912 8.79457 25.4818C15.6243 27.9178 23.1214 24.3472 25.5575 17.5175C26.6031 14.592 26.5363 11.522 25.5797 8.78564Z" fill="#191825" fill-opacity="0.5"/>
<path d="M15.9027 11.8889L16.2586 13.435L15.6135 20.8877L16.4032 20.6318L19.4399 10.8655L24.0005 9.5641C24.5789 9.37501 25.1684 9.0413 25.5689 8.77434C25.4243 8.3739 25.2685 7.98459 25.0906 7.59527C24.6234 7.59527 24.0227 7.61752 23.4888 7.76212L18.9393 9.06355L11.2086 2.37842L10.4077 2.57864L14.8904 8.57412L15.4132 10.0647L11.1085 11.2993L0.21875 15.0813C0.25212 15.3038 0.296613 15.5373 0.341107 15.7598L11.6313 13.1013L15.9027 11.8889Z" fill="white"/>
</svg>
