<svg width="213" height="32" viewBox="0 0 213 32" fill="none" xmlns="http://www.w3.org/2000/svg">
<path d="M23.055 19.2268C24.8767 24.1623 30.3673 26.6887 35.3043 24.8713C40.2384 23.0411 42.7705 17.5562 40.9417 12.6192C39.1186 7.67656 33.6365 5.1544 28.6925 6.97612C23.7526 8.80489 21.2305 14.287 23.055 19.2268Z" fill="white"/>
<path d="M10.8622 25.4219C16.1282 25.4219 20.3972 21.1529 20.3972 15.8868C20.3972 10.6208 16.1282 6.35181 10.8622 6.35181C5.59613 6.35181 1.32715 10.6208 1.32715 15.8868C1.32715 21.1529 5.59613 25.4219 10.8622 25.4219Z" fill="white"/>
<path d="M12.4877 15.7853C12.4877 16.7569 11.6983 17.5534 10.7267 17.5534C9.75089 17.5534 8.96289 16.7583 8.96289 15.7853C8.96289 14.8151 9.75089 14.0286 10.7267 14.0286C11.6983 14.03 12.4877 14.8151 12.4877 15.7853Z" fill="#191825" fill-opacity="0.5"/>
<path d="M33.7363 15.7853C33.7363 16.7569 32.9497 17.5534 31.9782 17.5534C30.9995 17.5534 30.2144 16.7583 30.2144 15.7853C30.2144 14.8151 30.9995 14.0286 31.9782 14.0286C32.9512 14.03 33.7363 14.8151 33.7363 15.7853Z" fill="#191825" fill-opacity="0.5"/>
<path d="M5.4873 15.7854C5.4873 18.6761 7.83858 21.0231 10.7293 21.0231C13.613 21.0231 15.9629 18.6761 15.9629 15.7854C15.9629 12.9017 13.6116 10.5532 10.7293 10.5532C7.84 10.556 5.4873 12.9031 5.4873 15.7854ZM7.29348 15.7854C7.29348 13.8944 8.83841 12.3566 10.7321 12.3566C12.6231 12.3566 14.1595 13.8987 14.1595 15.7854C14.1595 17.6819 12.6231 19.2226 10.7321 19.2226C8.83841 19.224 7.29348 17.6847 7.29348 15.7854Z" fill="#191825" fill-opacity="0.5"/>
<path d="M26.7393 15.7854C26.7393 18.6761 29.0877 21.0231 31.977 21.0231C34.8621 21.0231 37.2092 18.6761 37.2092 15.7854C37.2092 12.9017 34.8621 10.5532 31.977 10.5532C29.0891 10.556 26.7393 12.9031 26.7393 15.7854ZM28.5454 15.7854C28.5454 13.8944 30.0861 12.3566 31.9813 12.3566C33.8722 12.3566 35.4072 13.8987 35.4072 15.7854C35.4072 17.6819 33.8722 19.2226 31.9813 19.2226C30.0833 19.224 28.5454 17.6847 28.5454 15.7854Z" fill="#191825" fill-opacity="0.5"/>
<path d="M28.3254 5.97191C29.4297 5.5652 30.5595 5.36749 31.6751 5.33643C28.6361 3.9765 25.196 3.28735 21.3845 3.28735C17.6027 3.28735 14.1118 3.99203 11.0742 5.29124C16.5718 5.39997 21.0414 9.70571 21.4269 15.1327C21.5201 13.8872 21.8251 12.6558 22.3632 11.4893C23.548 8.90924 25.6677 6.95196 28.3254 5.97191Z" fill="white"/>
<path d="M40.5236 9.6225C41.0207 7.49434 42.5981 5.36477 42.5981 5.36477L35.5189 5.36054C31.5492 2.79743 26.728 1.4375 21.3872 1.4375C15.843 1.4375 10.8368 2.82991 6.88974 5.41137L0.253906 5.41702C0.253906 5.41702 1.81295 7.52258 2.3171 9.63521C1.02637 11.3905 0.259555 13.5469 0.259555 15.8883C0.259555 21.7334 5.01719 26.4882 10.865 26.4882C14.2077 26.4882 17.1888 24.9305 19.1333 22.5101L21.3914 25.8908L23.6664 22.4804C24.6903 23.7824 26.0107 24.8387 27.5584 25.5547C30.1328 26.7381 33.0179 26.8553 35.6742 25.8739C41.1605 23.8446 43.9778 17.7284 41.9485 12.2492C41.5927 11.2846 41.1069 10.4077 40.5236 9.6225ZM21.3858 3.28887C25.1972 3.28887 28.6373 3.97801 31.6763 5.33935C30.5593 5.36901 29.431 5.56813 28.3266 5.97201C25.6689 6.95206 23.5492 8.90935 22.3672 11.4852C21.8292 12.6516 21.5256 13.883 21.431 15.1286C21.0426 9.7044 16.5731 5.39866 11.0754 5.2871C14.1116 3.99213 17.6011 3.28887 21.3858 3.28887ZM17.8723 20.6248C16.3499 22.8702 13.7741 24.3501 10.8622 24.3501C6.19354 24.3501 2.39477 20.5485 2.39477 15.8898C2.39477 11.2183 6.19495 7.42373 10.8622 7.42373C15.5295 7.42373 19.3282 11.2183 19.3282 15.8898C19.3282 16.175 19.2731 16.4433 19.2435 16.7187C19.1023 18.1492 18.6419 19.4894 17.8723 20.6248ZM34.9328 23.8672C32.8117 24.6467 30.5113 24.5605 28.4566 23.613C26.9992 22.9379 25.8059 21.8802 24.9459 20.5669C24.5957 20.0359 24.2878 19.4725 24.0604 18.8553C23.802 18.1577 23.6735 17.4389 23.6043 16.7145C23.4631 15.2458 23.6763 13.7602 24.309 12.3833C25.258 10.3286 26.9469 8.7653 29.068 7.98013C33.4486 6.3646 38.3249 8.61138 39.9432 12.9905C41.5602 17.3697 39.312 22.246 34.9328 23.8672Z" fill="#191825" fill-opacity="0.5"/>
<path d="M55.1056 2.98674L52.0016 4.05859C52.0016 4.05859 52.0016 7.77545 52.0016 8.10872C51.6768 8.10872 48.5615 8.10872 48.5615 8.10872V10.8243C48.5615 10.8243 51.5808 10.8243 51.9084 10.8243C51.9084 11.1774 51.9084 19.5431 51.9084 19.5431C51.9084 23.6865 53.3192 25.3867 56.7889 25.3867C57.6687 25.3867 58.5089 25.278 59.352 25.0478L59.489 25.0139L59.4508 22.198L59.2136 22.2884C58.5315 22.5243 57.9977 22.6401 57.5854 22.6401C55.9557 22.6401 55.3513 21.7235 55.3513 19.2494C55.3513 19.2494 55.3513 11.176 55.3513 10.8286C55.6817 10.8286 59.3209 10.8286 59.3209 10.8286V8.10872C59.3209 8.10872 55.6831 8.10872 55.3513 8.10872C55.3513 7.77262 55.3513 2.90625 55.3513 2.90625L55.1056 2.98674Z" fill="#191825" fill-opacity="0.5"/>
<path d="M65.8381 10.8596C65.8381 9.9035 65.8381 8.10862 65.8381 8.10862H62.689V25.0873H66.1319V16.5648C66.1319 12.9919 67.633 11.0234 70.3529 11.0234C70.7469 11.0234 71.1296 11.0827 71.5956 11.214L71.8187 11.2776L71.9317 7.92645L70.4503 7.81348C68.4549 7.81207 66.8436 8.88956 65.8381 10.8596Z" fill="#191825" fill-opacity="0.5"/>
<path d="M78.0682 8.1072H74.8089V25.0872H78.2518V8.1072H78.0682ZM74.4756 3.13209C74.4756 4.26183 75.3963 5.17834 76.5232 5.17834C77.653 5.17834 78.5709 4.26183 78.5709 3.13209C78.5709 2.00376 77.653 1.08301 76.5232 1.08301C75.3963 1.08019 74.4756 2.00376 74.4756 3.13209Z" fill="#191825" fill-opacity="0.5"/>
<path d="M90.4108 7.70898C88.0482 7.70898 86.0612 8.82743 84.7366 10.8624C84.7366 10.049 84.7366 8.10439 84.7366 8.10439H81.5889V31.9999H85.0346C85.0346 31.9999 85.0346 23.6553 85.0346 22.7374C86.2773 24.4278 88.0595 25.357 90.278 25.357C94.6304 25.357 97.442 21.7856 97.442 16.271C97.442 11.1505 94.6148 7.70898 90.4108 7.70898ZM89.4491 22.5722C86.725 22.5722 85.0332 20.2435 85.0332 16.5026C85.0332 12.8917 86.8182 10.5588 89.5804 10.5588C92.2424 10.5588 93.8339 12.7702 93.8339 16.4673C93.8353 20.2308 92.1534 22.5722 89.4491 22.5722Z" fill="#191825" fill-opacity="0.5"/>
<path d="M107.505 7.70898C105.399 7.70898 103.555 8.10722 101.863 8.92063L101.759 8.97147L101.795 11.9102L102.066 11.7577C103.683 10.8539 105.214 10.3921 106.608 10.3921C109.102 10.3921 110.534 11.8213 110.534 14.3194C110.534 14.3194 110.534 14.3914 110.534 14.4649C110.23 14.4649 108.564 14.4649 108.564 14.4649C102.895 14.4649 99.7773 16.5182 99.7773 20.2407C99.7773 23.2303 102.028 25.3203 105.251 25.3203C107.622 25.3203 109.456 24.3882 110.764 22.6343C110.764 23.3164 110.764 25.0859 110.764 25.0859H113.875V14.8108C113.874 10.1012 111.731 7.70898 107.505 7.70898ZM110.528 17.919C110.528 20.8437 108.769 22.736 106.046 22.736C104.378 22.736 103.215 21.6401 103.215 20.0726C103.215 18.0122 105.185 16.8811 108.76 16.8811C108.76 16.8811 110.233 16.8811 110.531 16.8811C110.528 17.1452 110.528 17.919 110.528 17.919Z" fill="#191825" fill-opacity="0.5"/>
<path d="M128.497 0C128.497 0 128.497 9.46584 128.497 10.412C127.227 8.64678 125.46 7.71192 123.191 7.71192C118.978 7.71192 116.148 11.1802 116.148 16.3347C116.148 21.6445 119.019 25.3529 123.122 25.3529C125.552 25.3529 127.447 24.2768 128.761 22.1853C128.761 23.0312 128.761 25.0888 128.761 25.0888H131.944V0H128.497ZM124.014 22.5031C121.39 22.5031 119.761 20.2154 119.761 16.5324C119.761 12.8452 121.405 10.4614 123.952 10.4614C126.796 10.4614 128.494 12.7294 128.494 16.5324C128.497 20.1659 126.743 22.5031 124.014 22.5031Z" fill="#191825" fill-opacity="0.5"/>
<path d="M147.328 8.10742L142.446 17.9122L137.933 8.10742H134.054L142.374 25.0875L150.921 8.10742H147.328Z" fill="#191825" fill-opacity="0.5"/>
<path d="M155.933 8.1072H152.672V25.0872H156.119V8.1072H155.933ZM152.343 3.13209C152.343 4.26183 153.263 5.17834 154.391 5.17834C155.525 5.17834 156.439 4.26183 156.439 3.13209C156.439 2.00376 155.522 1.08301 154.391 1.08301C153.264 1.08019 152.343 2.00376 152.343 3.13209Z" fill="#191825" fill-opacity="0.5"/>
<path d="M160.156 12.4611C160.156 14.849 161.797 16.1073 164.828 17.5901C166.739 18.5292 167.737 19.0828 167.737 20.406C167.737 21.7631 166.511 22.64 164.608 22.64C163.262 22.64 161.768 22.2616 160.288 21.5343L160.036 21.41L159.925 24.4039L160.039 24.4462C161.454 25.0097 162.941 25.2851 164.478 25.2851C168.689 25.2851 171.407 23.2784 171.407 20.173C171.407 17.5844 169.686 16.2697 166.702 14.8773C164.517 13.8506 163.601 13.2533 163.601 12.1645C163.601 11.1336 164.62 10.4614 166.196 10.4614C167.62 10.4614 169.009 10.7777 170.324 11.4047L170.573 11.5191L170.722 8.59027L170.585 8.55072C169.159 8.12707 167.751 7.91383 166.395 7.91383C162.664 7.90818 160.156 9.73837 160.156 12.4611Z" fill="#191825" fill-opacity="0.5"/>
<path d="M182.15 7.70898C176.976 7.70898 173.763 11.1166 173.763 16.5958C173.763 22.0779 176.979 25.4799 182.15 25.4799C187.348 25.4799 190.575 22.0765 190.575 16.5958C190.575 11.118 187.346 7.70898 182.15 7.70898ZM182.18 22.671C179.32 22.671 177.4 20.2167 177.4 16.5634C177.4 12.8903 179.32 10.4274 182.18 10.4274C185.086 10.4274 186.963 12.838 186.963 16.5634C186.963 20.2746 185.089 22.671 182.18 22.671Z" fill="#191825" fill-opacity="0.5"/>
<path d="M196.927 10.8596C196.927 9.9035 196.927 8.10862 196.927 8.10862H193.778V25.0873H197.221V16.5648C197.221 12.9919 198.713 11.0234 201.437 11.0234C201.829 11.0234 202.209 11.0827 202.666 11.214L202.899 11.2776L203.006 7.92645L201.531 7.81348C199.544 7.81207 197.935 8.88956 196.927 10.8596Z" fill="#191825" fill-opacity="0.5"/>
<path d="M211.219 7.35592C211.784 7.92785 212.081 8.68761 212.081 9.50526C212.081 10.3596 211.762 11.125 211.174 11.6885C210.561 12.2703 209.802 12.5824 209.008 12.5824C208.179 12.5824 207.416 12.2562 206.823 11.6433C206.257 11.0558 205.937 10.3046 205.937 9.50243C205.937 8.68478 206.263 7.89255 206.873 7.29096C207.445 6.73032 208.18 6.42529 209.008 6.42529C209.857 6.42671 210.629 6.74868 211.219 7.35592ZM207.254 7.69343C206.757 8.19052 206.492 8.83024 206.492 9.50526C206.492 10.1633 206.737 10.7692 207.212 11.2521C207.688 11.7492 208.319 12.0175 208.995 12.0175C209.653 12.0175 210.286 11.7647 210.775 11.2903C211.255 10.8285 211.519 10.1958 211.519 9.50385C211.519 8.82741 211.273 8.21311 210.807 7.74286C210.319 7.24577 209.699 6.98452 209.008 6.98452C208.327 6.98452 207.73 7.22741 207.254 7.69343ZM209.064 7.75133C210.028 7.75133 210.522 8.10014 210.522 8.73138C210.522 9.16633 210.263 9.50385 209.804 9.64224L210.561 11.1236H209.536L208.905 9.78628H208.638V11.1236H207.709V7.74992L209.064 7.75133ZM208.631 9.23694H208.954C209.368 9.23694 209.567 9.09149 209.567 8.80199C209.567 8.47154 209.358 8.33597 208.905 8.33597H208.631V9.23694Z" fill="#191825" fill-opacity="0.5"/>
</svg>
